<?xml version="1.0" encoding="UTF-8" standalone="yes"?>
<svg version="1.2" viewBox="0 0 1080 1080" baseProfile="tiny-ps" xmlns="http://www.w3.org/2000/svg">
  <title>bimi-svg-tiny-12-ps</title>
  <rect x="-.02" y=".4" width="1080" height="1080" stroke="#1d1d1b" stroke-miterlimit="10"/>
  <rect x="762.71" y="664.88" width="103.12" height="103.12" rx="51.56" ry="51.56" fill="#fff"/>
  <path d="M386.39,312.81v455.19h-100.92v-142.7l.02-.02,12.64-12.64-12.66-12.66v-287.17h100.92Z" fill="#fff"/>
  <path d="M596.21,457.28l-310.72,310.72-.02-.02c-39.38-39.4-39.38-103.28,0-142.68l.02-.02,12.64-12.64,71.36-71.36,16.9-16.9,67.1-67.1h142.72Z" fill="#fff"/>
  <path d="M693.42,241.32h0c55.7,0,100.92,45.22,100.92,100.92v142.98h-100.92v-243.89h0Z" transform="translate(380.61 1107.15) rotate(-90)" fill="#fff"/>
  <path d="M722.85,312.81h0v455.19h-100.92v-354.28c0-55.7,45.22-100.92,100.92-100.92Z" fill="#fff"/>
  <path d="M452.97,312.81h40.12c56.91,0,103.12,46.21,103.12,103.12h-40.12c-56.91,0-103.12-46.21-103.12-103.12h0Z" fill="#fff"/>
  <polygon points="596.21 768 453.49 768 386.39 700.9 369.49 684 214.13 528.64 285.47 457.3 285.49 457.28 386.39 558.18 440.85 612.64 596.21 768" fill="#fff"/>
  <polygon points="809.79 511.73 809.79 612.64 521.03 612.64 621.94 511.73 809.79 511.73" fill="#fff"/>
</svg>